<?xml version="1.0" encoding="UTF-8" standalone="no"?>
<!DOCTYPE svg PUBLIC "-//W3C//DTD SVG 1.1//EN" "http://www.w3.org/Graphics/SVG/1.1/DTD/svg11.dtd">
<svg width="100%" height="100%" viewBox="0 0 50 15" version="1.1" xmlns="http://www.w3.org/2000/svg" xmlns:xlink="http://www.w3.org/1999/xlink" xml:space="preserve" xmlns:serif="http://www.serif.com/" style="fill-rule:evenodd;clip-rule:evenodd;stroke-linejoin:round;stroke-miterlimit:1.41421;">
    <style type="text/css">
        #LOGO path, 
        #LOGO circle {
            fill: #FFFFFF !important;
        }
    </style>
    <g transform="matrix(1,0,0,1,-7.2,-10.7)">
        <g id="LOGO" transform="matrix(0.249875,0,0,0.249875,5.4009,8.02634)">
            <path d="M28.9,67.6L28.9,12.3L59.6,12.3L59.6,24.6L41.2,24.6L41.2,67.6L28.9,67.6Z" style="fill:rgb(29,28,29);fill-rule:nonzero;"/>
            <circle cx="15.3" cy="18.8" r="8.1" style="fill:rgb(29,28,29);"/>
            <circle cx="199.2" cy="60.6" r="8.1" style="fill:rgb(29,28,29);"/>
            <path d="M91.7,24.7L91.7,35L88.6,35C85.1,35 82.3,35.9 80.2,37.8C78.1,39.7 77,42.5 77,46.2L77,67.6L65.3,67.6L65.3,24.6L76.1,24.6L76.1,29.8C79.1,26 83,24.1 87.9,24.1C89.3,24.1 90.6,24.3 91.7,24.7Z" style="fill:rgb(29,28,29);fill-rule:nonzero;"/>
            <path d="M138.1,48.7C138.1,54.7 136.2,59.5 132.5,63.1C128.8,66.8 124.1,68.6 118.4,68.6C112.6,68.6 107.9,66.8 104.1,63.1C100.4,59.5 98.5,54.6 98.5,48.6L98.5,24.6L110.2,24.6L110.2,49.6C110.2,52.1 111,54.1 112.5,55.6C114,57.1 116,57.9 118.4,57.9C120.7,57.9 122.6,57.1 124.1,55.6C125.6,54.1 126.4,52.1 126.4,49.6L126.4,24.6L138.1,24.6L138.1,48.7Z" style="fill:rgb(29,28,29);fill-rule:nonzero;"/>
            <path d="M186.3,50.1L156.1,50.1C156.9,52.8 158.3,54.9 160.4,56.4C162.5,57.9 165.1,58.6 168.3,58.6C172.5,58.6 176.5,57.2 180.3,54.3L185.2,62.3C180.1,66.6 174.4,68.7 168,68.7C161.2,68.7 155.6,66.5 151.2,62.2C146.7,57.9 144.5,52.6 144.5,46.2C144.5,39.9 146.7,34.6 151,30.2C155.3,25.9 160.6,23.7 167,23.7C173,23.7 177.8,25.6 181.6,29.4C185.4,33.2 187.2,38 187.2,43.6C187.1,45.7 186.8,47.9 186.3,50.1ZM159.9,35.5C158,37.1 156.8,39.2 156.1,41.8L175.7,41.8C175.6,39.1 174.7,37 172.9,35.5C171.1,33.9 168.9,33.2 166.4,33.2C163.9,33.1 161.7,33.9 159.9,35.5Z" style="fill:rgb(29,28,29);fill-rule:nonzero;"/>
        </g>
    </g>
</svg>
