<svg xmlns="http://www.w3.org/2000/svg" width="16" height="16" viewBox="0 0 16 16"><g><g><path d="M14.144 12.398c.134-.381.224-.986.269-1.816.022-.493.033-1.188.033-2.084V7.422c0-.919-.011-1.614-.033-2.084-.045-.852-.135-1.457-.27-1.816a2.426 2.426 0 0 0-1.445-1.446c-.359-.134-.964-.224-1.816-.269a49.059 49.059 0 0 0-2.084-.033H7.722c-.897 0-1.591.01-2.084.033-.83.045-1.435.135-1.816.27a2.426 2.426 0 0 0-1.446 1.445c-.134.359-.224.964-.269 1.816a49.06 49.06 0 0 0-.033 2.084v1.076c0 .896.01 1.591.033 2.084.045.83.135 1.435.27 1.816.29.695.773 1.177 1.445 1.446.381.134.986.224 1.816.269a49.06 49.06 0 0 0 2.084.033h1.076c.919 0 1.614-.011 2.084-.033.852-.045 1.457-.135 1.816-.27.695-.29 1.177-.773 1.446-1.445zm1.602-7.567c.023.627.034 1.668.034 3.124 0 1.456-.017 2.503-.05 3.141-.034.638-.13 1.193-.286 1.663a3.916 3.916 0 0 1-.924 1.461 3.916 3.916 0 0 1-1.461.924c-.47.157-1.025.252-1.663.286-.638.033-1.685.05-3.141.05s-2.503-.017-3.141-.05c-.638-.034-1.193-.14-1.663-.32a3.58 3.58 0 0 1-1.461-.89 3.916 3.916 0 0 1-.924-1.461c-.157-.47-.252-1.025-.286-1.663-.033-.638-.05-1.685-.05-3.141s.017-2.503.05-3.141c.034-.638.13-1.193.286-1.663.202-.56.51-1.047.924-1.461A3.915 3.915 0 0 1 3.45.766C3.921.609 4.476.514 5.114.48 5.752.447 6.799.43 8.255.43s2.503.017 3.141.05c.638.034 1.193.13 1.663.286.56.202 1.047.51 1.461.924.415.414.722.901.924 1.461.157.47.258 1.03.302 1.68zm-2.553-.907c-.022.246-.117.459-.285.638a.818.818 0 0 1-.622.269.872.872 0 0 1-.638-.269.872.872 0 0 1-.269-.638c0-.247.09-.46.269-.639a.872.872 0 0 1 .638-.268c.247 0 .46.09.639.268.179.18.268.392.268.639zm-4.943 6.54c.693 0 1.285-.245 1.777-.737a2.422 2.422 0 0 0 .738-1.777c0-.693-.246-1.285-.738-1.777a2.422 2.422 0 0 0-1.777-.738c-.693 0-1.285.246-1.777.738a2.422 2.422 0 0 0-.738 1.777c0 .693.246 1.285.738 1.777a2.422 2.422 0 0 0 1.777.738zm.005-6.372a3.76 3.76 0 0 1 1.932.52 3.875 3.875 0 0 1 1.41 1.411 3.76 3.76 0 0 1 .521 1.932 3.76 3.76 0 0 1-.52 1.932 3.875 3.875 0 0 1-1.411 1.41 3.76 3.76 0 0 1-1.932.521 3.76 3.76 0 0 1-1.932-.52 3.875 3.875 0 0 1-1.41-1.411 3.76 3.76 0 0 1-.521-1.932c0-.694.173-1.338.52-1.932a3.875 3.875 0 0 1 1.411-1.41 3.76 3.76 0 0 1 1.932-.521z"/></g></g></svg>