<svg xmlns="http://www.w3.org/2000/svg" width="15" height="15" viewBox="0 0 15 15"><g><g><path fill="#0065a4" d="M15 15h-3.114v-4.888c0-.804-.067-1.384-.2-1.741-.246-.603-.726-.904-1.44-.904-.715 0-1.217.267-1.507.803-.223.402-.335.993-.335 1.775V15h-3.08V4.989h2.98v1.373h.033c.223-.447.58-.815 1.071-1.105.536-.357 1.161-.536 1.875-.536 1.451 0 2.467.458 3.047 1.373.447.736.67 1.875.67 3.415zM1.808 3.616c-.491 0-.915-.178-1.272-.536A1.738 1.738 0 0 1 0 1.808C0 1.317.179.893.536.536A1.738 1.738 0 0 1 1.808 0c.491 0 .915.179 1.272.536.357.357.536.781.536 1.272s-.179.915-.536 1.272a1.738 1.738 0 0 1-1.272.536zM3.358 15H.234V4.989h3.124z"/></g></g></svg>