<svg xmlns="http://www.w3.org/2000/svg" width="16" height="16" viewBox="0 0 16 16"><g><g><path d="M15.38 15.88h-3.124v-4.905c0-.806-.067-1.388-.202-1.747-.246-.604-.728-.907-1.444-.907-.717 0-1.22.27-1.512.807-.224.403-.336.996-.336 1.78v4.972h-3.09V5.835h2.99v1.378h.033c.224-.448.582-.818 1.075-1.109.537-.358 1.164-.537 1.881-.537 1.456 0 2.475.459 3.057 1.377.448.74.672 1.881.672 3.427zM2.144 4.458c-.493 0-.918-.179-1.277-.537A1.744 1.744 0 0 1 .33 2.644c0-.493.18-.918.537-1.276A1.744 1.744 0 0 1 2.144.83c.493 0 .918.18 1.277.538.358.358.537.783.537 1.276s-.18.918-.537 1.277a1.744 1.744 0 0 1-1.277.537zM3.69 15.88H.565V5.835H3.69z"/></g></g></svg>