<svg xmlns="http://www.w3.org/2000/svg" width="18" height="15" viewBox="0 0 18 15"><g><g><path d="M15.67 3.854c.022.09.033.235.033.436 0 1.613-.392 3.17-1.176 4.67-.806 1.59-1.937 2.855-3.393 3.796-1.59 1.053-3.415 1.579-5.475 1.579-1.971 0-3.774-.526-5.409-1.579.246.022.526.034.84.034 1.635 0 3.102-.504 4.4-1.512-.783 0-1.472-.23-2.065-.689a3.508 3.508 0 0 1-1.227-1.73c.224.023.437.034.639.034.313 0 .627-.034.94-.101a3.554 3.554 0 0 1-2.015-1.243 3.382 3.382 0 0 1-.807-2.217v-.067a3.32 3.32 0 0 0 1.58.47 3.913 3.913 0 0 1-1.143-1.277 3.388 3.388 0 0 1-.437-1.696c0-.616.168-1.204.504-1.764a9.727 9.727 0 0 0 3.209 2.62 9.764 9.764 0 0 0 4.048 1.076 4.896 4.896 0 0 1-.068-.807c0-.627.157-1.215.47-1.763.314-.549.74-.98 1.277-1.294a3.407 3.407 0 0 1 1.747-.47c.515 0 .991.1 1.428.302.437.202.823.47 1.159.807a7.177 7.177 0 0 0 2.25-.84c-.268.828-.783 1.478-1.545 1.948a7.577 7.577 0 0 0 2.016-.57 7.754 7.754 0 0 1-1.78 1.847z"/></g></g></svg>