<svg xmlns="http://www.w3.org/2000/svg" width="195" height="39" viewBox="0 0 195 39"><defs><clipPath id="iihea"><path d="M188.88.55h5.805v5.729h-5.805z"/></clipPath><clipPath id="iiheb"><path d="M0 38.924h194.683V.55H0z"/></clipPath></defs><g><g><g><path fill="#fff" d="M186.783 4.429v14.723l-6.714-.009s-.026-10.506-.01-11.259c.024-1-1.61-1.997-3.489-.759 0 0-1.086.85-1.157 2.95l.013 9.068-6.746.01V1.885h6.895v2.03s5.24-2.722 7.76-2.2c0 0 2.735.274 3.448 2.713"/></g><g><path fill="#fff" d="M163.522 4.429v14.723l-6.718-.009s0-10.745-.004-11.259c-.007-1-1.61-1.997-3.49-.759 0 0-1.087.85-1.158 2.95l.008 9.068-6.74.01V1.885h6.895v2.03s5.24-2.722 7.759-2.2c0 0 2.736.274 3.448 2.713"/></g><g><path fill="#fff" d="M89.83 19.149l.015-17.409h6.895v2.368s4.446-2.683 6.967-2.298c0 0 2.132.142 3.34 2.258 0 0 4.21-3 7.393-2.116 0 0 2.83.802 2.973 2.988v14.228h-6.87V8.33s-.262-1.75-1.989-1.23c0 0-1.389.261-1.464 1.937v10.131h-6.868V8.516s-.817-2.09-2.628-.856c0 0-.864.521-.854 2.332l-.01 9.176z"/></g><g><path fill="#fff" d="M32.612 19.168h6.024c3.684-.143 3.472-3.287 3.472-3.287V1.73H35.02v13.007c-.014 1.38-1.193 1.62-1.817 1.65-.226.01-.378.01-.378.01s-.151.002-.372-.009c-.612-.027-1.77-.261-1.826-1.65V1.73h-7.086v14.15s-.213 3.145 3.472 3.288h6.024z"/></g><g><path fill="#fff" d="M78.741 7.747h6.703V3.542s-.358-1.783-2.873-1.783H72.15s-3.233-.356-3.736 1.997v6.629s.072 1.924 3.736 1.996h4.527s1.869 0 2.012 1.283c0 0 .29 1.589-.317 2.226-.319.335-.62.559-1.333.57-.583-.011-1.07-.197-1.297-.533-.377-.561-.375-.95-.358-2.069h-6.97v3.084s-.216 2.21 2.227 2.21h12.072s2.3.214 2.802-2.638V11.81s-.216-2.352-2.083-2.423c0 0-5.945-.148-6.093-.242-.359-.015-2.066.242-1.955-1.255l.002-1.838c0-1.007.939-1.566 1.671-1.547 1.016.026 1.56.54 1.691 1.528z"/></g><g><path fill="#fff" d="M57.321 7.747h6.703V3.542s-.358-1.783-2.873-1.783H50.73s-3.233-.356-3.736 1.997v6.629s.072 1.924 3.736 1.996h4.527s1.869 0 2.012 1.283c0 0 .29 1.589-.317 2.226-.319.335-.62.559-1.333.57-.583-.011-1.07-.197-1.297-.533-.377-.561-.375-.95-.358-2.069h-6.97v3.084s-.216 2.21 2.227 2.21h12.072s2.3.214 2.802-2.638V11.81s-.216-2.352-2.084-2.423c0 0-5.945-.148-6.092-.242-.359-.015-2.066.242-1.955-1.255l.002-1.838c0-1.007.939-1.566 1.671-1.547 1.016.026 1.56.54 1.691 1.528z"/></g><g><path fill="#fff" d="M9.304 11.978l1.327.053s.822 0 .822.849v6.262l7.181.01V1.726h-7.183l.002 6.218s-.016.817-.816.85l-1.333.053-1.333-.053c-.79-.027-.816-.796-.816-.796V1.71L0 1.726v17.426l7.128-.01V12.88c0-.849.81-.849.81-.849z"/></g><g><g/><g clip-path="url(#iihea)"><path fill="#fff" d="M191.79 6.279c-1.576 0-2.91-1.213-2.91-2.872 0-1.645 1.334-2.857 2.91-2.857 1.56 0 2.895 1.212 2.895 2.857 0 1.66-1.334 2.872-2.895 2.872zm-2.334-2.872c0 1.38 1.023 2.395 2.334 2.395 1.296 0 2.318-1.015 2.318-2.395 0-1.357-1.022-2.38-2.318-2.38-1.31 0-2.334 1.023-2.334 2.38zm1.727 1.672h-.5V1.76h1.258c.78 0 1.167.29 1.167.944 0 .593-.37.852-.856.914l.94 1.46h-.561l-.871-1.438h-.577zm.603-1.864c.428 0 .81-.03.81-.542 0-.413-.374-.49-.726-.49h-.687v1.032z"/></g></g><g><path fill="#fff" d="M133.737 10.149c-.016.961-.785 1.014-.785 1.014l-1.32.053-1.28-.053s-.823.053-.796-1.247V5.02c0-.902.67-.956 1.193-.942l.883-.02.869.02c1.047-.073 1.175.484 1.236.743zm-7.153-8.41c-4.51-.154-4.147 3.185-4.147 3.185l.008 14.225h7.137v-3.793c-.026-.479.478-.797.85-.797.019-.018 1.193-.053 1.193-.053s1.266.045 1.274.053c.582 0 .822.45.85.823v3.767h7.136V4.888s.372-3.343-4.289-3.15z"/></g><g><path fill="#fff" d="M71.562 33.98l-.875 2.438H69.52l3.15-8.378h1.284l3.033 8.378h-1.236l-.829-2.439zm2.952-1.004l-1.237-3.688h-.024l-1.341 3.688z"/></g><g><path fill="#fff" d="M82.512 36.418H81.38V28.04h3.768c1.552 0 2.486 1.004 2.486 2.357 0 1.167-.665 2.485-2.486 2.485h-2.636zm.002-4.504h2.25c1.013 0 1.701-.374 1.701-1.505 0-1.062-.722-1.4-1.655-1.4h-2.296z"/></g><g><path fill="#fff" d="M88.413 32.17c.047-1.458 1.016-2.03 2.52-2.03.49 0 2.264.14 2.264 1.704v3.512c0 .256.129.362.339.362.093 0 .221-.024.338-.047v.747c-.175.046-.327.116-.56.116-.91 0-1.05-.467-1.085-.933-.397.431-1.015.992-2.206.992-1.12 0-1.913-.712-1.913-1.762 0-.514.152-1.704 1.855-1.914l1.692-.21c.245-.023.537-.117.537-.723 0-.642-.467-.992-1.435-.992-1.167 0-1.33.712-1.4 1.179zm3.755 1.137c-.163.128-.42.221-1.69.384-.5.07-1.304.221-1.304.99 0 .663.338 1.058 1.106 1.058.956 0 1.888-.617 1.888-1.43z"/></g><g><path fill="#fff" d="M99.91 36.418h-1.027V32.66c0-1.061-.302-1.598-1.306-1.598-.584 0-1.61.373-1.61 2.03v3.326H94.94v-6.102h.968v.863h.024c.221-.327.793-1.039 1.843-1.039.945 0 2.135.385 2.135 2.124z"/></g><g><path fill="#fff" d="M101.393 32.17c.047-1.458 1.016-2.03 2.52-2.03.49 0 2.264.14 2.264 1.704v3.512c0 .256.128.362.339.362.093 0 .221-.024.338-.047v.747c-.175.046-.327.116-.56.116-.91 0-1.05-.467-1.086-.933-.396.431-1.015.992-2.205.992-1.12 0-1.913-.712-1.913-1.762 0-.514.152-1.704 1.855-1.914l1.692-.21c.245-.023.537-.117.537-.723 0-.642-.467-.992-1.436-.992-1.167 0-1.33.712-1.4 1.179zm3.757 1.137c-.163.128-.42.221-1.692.384-.501.07-1.306.221-1.306.99 0 .663.338 1.058 1.108 1.058.957 0 1.89-.617 1.89-1.43z"/></g><g><path fill="#fff" d="M111.38 32.054c-.01-.385-.151-1.027-1.446-1.027-.315 0-1.214.105-1.214.863 0 .502.315.619 1.108.817l1.027.257c1.272.315 1.716.782 1.716 1.61 0 1.26-1.039 2.019-2.415 2.019-2.416 0-2.591-1.4-2.626-2.136h.992c.034.479.175 1.249 1.622 1.249.735 0 1.4-.292 1.4-.968 0-.491-.339-.654-1.214-.876l-1.19-.291c-.851-.21-1.411-.642-1.411-1.482 0-1.342 1.108-1.949 2.31-1.949 2.181 0 2.333 1.61 2.333 1.914z"/></g><g><path fill="#fff" d="M116.235 30.14c1.949 0 2.835 1.645 2.835 3.221 0 1.575-.886 3.22-2.835 3.22-1.948 0-2.835-1.645-2.835-3.22 0-1.576.887-3.221 2.835-3.221m0 5.543c1.47 0 1.774-1.513 1.774-2.327 0-.815-.304-2.328-1.774-2.328s-1.774 1.513-1.774 2.328c0 .814.304 2.327 1.774 2.327"/></g><g><path fill="#fff" d="M125.2 36.418h-1.027V32.66c0-1.061-.303-1.598-1.307-1.598-.583 0-1.61.373-1.61 2.03v3.326h-1.026v-6.102h.968v.863h.024c.221-.327.793-1.039 1.843-1.039.945 0 2.135.385 2.135 2.124z"/></g><g/><g clip-path="url(#iiheb)"><path fill="#fff" d="M126.74 29.226h1.027V28.05h-1.027zm0 7.201h1.027v-6.104h-1.027z"/></g><g clip-path="url(#iiheb)"><path fill="#fff" d="M133.124 32.369c-.128-.817-.583-1.307-1.447-1.307-1.272 0-1.68 1.213-1.68 2.299 0 1.05.257 2.345 1.668 2.345.689 0 1.284-.513 1.459-1.447h.992c-.106.968-.7 2.334-2.486 2.334-1.715 0-2.73-1.296-2.73-3.057 0-1.89.91-3.396 2.929-3.396 1.598 0 2.205 1.167 2.287 2.229z"/></g><g clip-path="url(#iiheb)"><path fill="#fff" d="M144.394 30.562c-.315-1.47-1.54-1.739-2.346-1.739-1.516 0-2.74 1.12-2.74 3.325 0 1.972.699 3.49 2.776 3.49.734 0 2.006-.35 2.391-2.3h1.097c-.466 3.163-3.033 3.303-3.663 3.303-1.902 0-3.769-1.237-3.769-4.457 0-2.579 1.47-4.364 3.908-4.364 2.159 0 3.28 1.342 3.443 2.742z"/></g><g clip-path="url(#iiheb)"><path fill="#fff" d="M149.295 30.14c1.948 0 2.835 1.645 2.835 3.221 0 1.575-.887 3.22-2.835 3.22s-2.835-1.645-2.835-3.22c0-1.576.887-3.221 2.835-3.221m0 5.543c1.47 0 1.774-1.513 1.774-2.327 0-.815-.304-2.328-1.774-2.328s-1.774 1.513-1.774 2.328c0 .814.304 2.327 1.774 2.327"/></g><g clip-path="url(#iiheb)"><path fill="#fff" d="M153.3 30.325h.968v.863h.024c.222-.326.747-1.038 1.843-1.038 1.097 0 1.447.665 1.622.992.513-.572.922-.992 1.867-.992.653 0 1.89.339 1.89 2.053v4.224h-1.027v-3.943c0-.84-.257-1.412-1.131-1.412-.864 0-1.435.816-1.435 1.633v3.722h-1.027v-4.224c0-.513-.198-1.131-.957-1.131-.584 0-1.61.373-1.61 2.03v3.325H153.3z"/></g><g clip-path="url(#iiheb)"><path fill="#fff" d="M162.93 30.325h.968v.863h.024c.244-.35.711-1.038 1.82-1.038 1.621 0 2.543 1.33 2.543 3.046 0 1.458-.607 3.407-2.684 3.407-.816 0-1.353-.385-1.622-.817h-.023v3.057h-1.026zm4.293 3.04c0-.785-.081-2.293-1.669-2.293-1.481 0-1.644 1.602-1.644 2.595 0 1.626 1.015 2.059 1.668 2.059 1.12 0 1.645-1.017 1.645-2.362z"/></g><g clip-path="url(#iiheb)"><path fill="#fff" d="M169.463 32.17c.047-1.458 1.015-2.03 2.52-2.03.49 0 2.264.14 2.264 1.704v3.512c0 .256.128.362.338.362.093 0 .222-.024.338-.047v.747c-.174.046-.326.116-.56.116-.91 0-1.05-.467-1.085-.933-.396.431-1.015.992-2.205.992-1.12 0-1.913-.712-1.913-1.762 0-.514.151-1.704 1.855-1.914l1.692-.21c.245-.023.536-.117.536-.723 0-.642-.466-.992-1.435-.992-1.167 0-1.33.712-1.4 1.179zm3.754 1.137c-.163.128-.42.221-1.69.384-.5.07-1.304.221-1.304.99 0 .663.338 1.058 1.107 1.058.955 0 1.887-.617 1.887-1.43z"/></g><g clip-path="url(#iiheb)"><path fill="#fff" d="M180.96 36.418h-1.027V32.66c0-1.061-.302-1.598-1.306-1.598-.584 0-1.61.373-1.61 2.03v3.326h-1.027v-6.102h.968v.863h.024c.221-.327.793-1.039 1.843-1.039.945 0 2.135.385 2.135 2.124z"/></g><g clip-path="url(#iiheb)"><path fill="#fff" d="M186.115 30.32h1.132c-.711 1.995-1.412 3.99-2.193 5.986-.969 2.473-1.074 2.613-2.392 2.613-.152 0-.269-.047-.432-.093v-.934c.128.047.338.105.619.105.536 0 .595-.151 1.084-1.411l-2.263-6.266h1.167l1.622 4.97h.023z"/></g></g></g></svg>