<svg xmlns="http://www.w3.org/2000/svg" width="70" height="70" viewBox="0 0 70 70"><g><g><g><path fill="#0065a4" d="M64.56 34.814c0 16.245-13.218 29.46-29.46 29.46-16.245 0-29.46-13.218-29.46-29.46 0-16.245 13.215-29.46 29.46-29.46 16.244 0 29.462 13.22 29.46 29.46zm5.359.005C69.919 15.62 54.298 0 35.099 0 15.904 0 .285 15.618.28 34.817c0 19.2 15.621 34.819 34.82 34.819 19.198 0 34.819-15.618 34.819-34.817z"/></g><g><path fill="#0065a4" d="M30.498 46.198c-.686 0-1.37-.262-1.892-.785l-8.2-8.206a2.675 2.675 0 0 1 0-3.787 2.675 2.675 0 0 1 3.787 0l6.308 6.308 15.515-15.515a2.683 2.683 0 0 1 3.79 0 2.683 2.683 0 0 1 0 3.79l-17.41 17.41a2.684 2.684 0 0 1-1.898.785z"/></g></g></g></svg>