<svg xmlns="http://www.w3.org/2000/svg" width="26" height="48" viewBox="0 0 26 48"><g><g><g><g><path fill="#0065a4" d="M12.772 39.96a4.922 4.922 0 0 1-4.913-4.918 4.92 4.92 0 0 1 4.913-4.914 4.919 4.919 0 0 1 4.912 4.914c-.002 2.712-2.205 4.918-4.912 4.918zm.65-11.095V7.209a.65.65 0 0 0-1.3 0v21.656c-3.12.326-5.562 2.972-5.562 6.178 0 3.43 2.787 6.218 6.212 6.218 3.423 0 6.21-2.789 6.21-6.218a6.224 6.224 0 0 0-5.56-6.178z"/><path fill="none" stroke="#fff" stroke-miterlimit="20" stroke-width=".3" d="M12.772 39.96a4.922 4.922 0 0 1-4.913-4.918 4.92 4.92 0 0 1 4.913-4.914 4.919 4.919 0 0 1 4.912 4.914c-.002 2.712-2.205 4.918-4.912 4.918zm.65-11.095V7.209a.65.65 0 0 0-1.3 0v21.656c-3.12.326-5.562 2.972-5.562 6.178 0 3.43 2.787 6.218 6.212 6.218 3.423 0 6.21-2.789 6.21-6.218a6.224 6.224 0 0 0-5.56-6.178z"/></g><g><path fill="#0065a4" d="M23.245 35.046c0 5.782-4.696 10.485-10.47 10.485-5.776 0-10.476-4.704-10.476-10.485 0-3.733 2.007-7.21 5.237-9.077a.65.65 0 0 0 .325-.562V7.212a4.92 4.92 0 0 1 4.914-4.913 4.92 4.92 0 0 1 4.913 4.913v18.193c0 .232.124.445.325.562a10.518 10.518 0 0 1 5.232 9.079zm.651-18.835a.65.65 0 0 0 0-1.299h-4.911v-4.264h4.911a.65.65 0 0 0 0-1.298h-4.911V7.212A6.22 6.22 0 0 0 12.773 1 6.22 6.22 0 0 0 6.56 7.212l.002 17.825A11.82 11.82 0 0 0 1 35.046C1 41.544 6.282 46.83 12.775 46.83c6.49 0 11.769-5.286 11.769-11.784 0-4.07-2.12-7.87-5.557-10.007v-3.26h4.911a.65.65 0 0 0 0-1.299h-4.911v-4.27z"/><path fill="none" stroke="#fff" stroke-miterlimit="20" stroke-width=".3" d="M23.245 35.046c0 5.782-4.696 10.485-10.47 10.485-5.776 0-10.476-4.704-10.476-10.485 0-3.733 2.007-7.21 5.237-9.077a.65.65 0 0 0 .325-.562V7.212a4.92 4.92 0 0 1 4.914-4.913 4.92 4.92 0 0 1 4.913 4.913v18.193c0 .232.124.445.325.562a10.518 10.518 0 0 1 5.232 9.079zm.651-18.835a.65.65 0 0 0 0-1.299h-4.911v-4.264h4.911a.65.65 0 0 0 0-1.298h-4.911V7.212A6.22 6.22 0 0 0 12.773 1 6.22 6.22 0 0 0 6.56 7.212l.002 17.825A11.82 11.82 0 0 0 1 35.046C1 41.544 6.282 46.83 12.775 46.83c6.49 0 11.769-5.286 11.769-11.784 0-4.07-2.12-7.87-5.557-10.007v-3.26h4.911a.65.65 0 0 0 0-1.299h-4.911v-4.27z"/></g></g></g></g></svg>